<?xml version="1.0" encoding="UTF-8"?>
<svg version="1.1" xmlns="http://www.w3.org/2000/svg" width="408" height="297">
<path d="M0 0 C0.96658381 0.48540788 1.93316763 0.97081575 2.92904186 1.47093296 C4.6052486 2.30176647 4.6052486 2.30176647 6.31531811 3.1493845 C7.53882136 3.77095466 8.76220612 4.39275811 9.98548412 5.01477146 C11.28471049 5.66441235 12.5844633 6.31300129 13.88469982 6.96061802 C17.4063188 8.71843496 20.9203222 10.49100244 24.43308568 12.26643538 C28.10930107 14.12145444 31.79217063 15.96316794 35.47429943 17.8064127 C41.65257662 20.90152695 47.82641294 24.00534426 53.99720287 27.1153574 C62.70951172 31.50624567 71.42982445 35.88104638 80.15173495 40.25282371 C86.91650846 43.64435064 93.67904139 47.04034217 100.44129467 50.4368906 C101.16837509 50.80201653 101.89545552 51.16714246 102.64456868 51.54333282 C106.8159324 53.63840558 110.98617155 55.73568649 115.15467548 57.8364439 C116.41977498 58.47366549 117.68521235 59.11021678 118.95100307 59.74606419 C120.6722466 60.61089325 122.39211639 61.47845482 124.11190319 62.3461771 C125.55895122 63.07485445 125.55895122 63.07485445 127.03523254 63.81825256 C129.20301342 64.97204685 129.20301342 64.97204685 130.20301342 65.97204685 C130.29828148 68.92451039 130.32853794 71.85353106 130.31653881 74.80627537 C130.31668484 75.7330106 130.31683086 76.65974583 130.31698132 77.61456394 C130.3162818 80.69338372 130.30848763 83.77214382 130.30066967 86.8509531 C130.29880563 88.97944703 130.29738166 91.10794138 130.29638195 93.23643589 C130.2925557 98.85067006 130.2827245 104.46487853 130.27167797 110.07910252 C130.26146615 115.80317938 130.25688482 121.52726038 130.25184155 127.25134373 C130.24110233 138.49158942 130.22402462 149.731816 130.20301342 160.97204685 C126.24791847 162.97849934 122.28842321 164.97610821 118.32801342 166.97204685 C117.20008373 167.5443906 116.07215405 168.11673435 114.91004467 168.70642185 C113.29549389 169.51853123 113.29549389 169.51853123 111.64832592 170.34704685 C110.6533308 170.84978123 109.65833569 171.3525156 108.6331892 171.87048435 C106.20301342 172.97204685 106.20301342 172.97204685 104.20301342 172.97204685 C104.20301342 163.07204685 104.20301342 153.17204685 104.20301342 142.97204685 C101.47633404 144.33760715 98.74965466 145.70316746 95.94034863 147.11010838 C70.95874441 159.62079291 45.97516352 172.12752065 20.98940916 184.62991431 C17.71733365 186.26720283 14.44527557 187.90452619 11.17322826 189.54187107 C10.52179886 189.86784808 9.87036947 190.19382509 9.19919978 190.52968019 C-1.36040307 195.81383761 -11.91858999 201.10081824 -22.47625993 206.38883632 C-33.30257089 211.8113303 -44.13038953 217.23080435 -54.95962536 222.64745474 C-61.64636824 225.99220099 -68.33191188 229.3393212 -75.01595975 232.68944991 C-80.13406257 235.2543925 -85.2542552 237.81513962 -90.37525654 240.37428951 C-92.48111941 241.42749731 -94.58629097 242.48208861 -96.69073582 243.53812695 C-99.55212143 244.97375591 -102.41589593 246.40450007 -105.2803545 247.83398533 C-106.12275555 248.25809869 -106.96515659 248.68221206 -107.83308494 249.11917734 C-108.59644727 249.49886746 -109.35980961 249.87855758 -110.14630413 250.26975346 C-110.80777695 250.60086958 -111.46924976 250.93198571 -112.15076721 251.27313566 C-113.79698658 251.97204685 -113.79698658 251.97204685 -115.79698658 251.97204685 C-115.79698658 262.53204685 -115.79698658 273.09204685 -115.79698658 283.97204685 C-119.63323658 285.97267185 -123.46948658 287.97329685 -127.42198658 290.03454685 C-128.62033131 290.67013523 -129.81867603 291.30572361 -131.05333424 291.96057224 C-132.01288013 292.45033543 -132.97242603 292.94009861 -133.96104908 293.4447031 C-134.93509693 293.95267429 -135.90914478 294.46064548 -136.91270924 294.98400974 C-141.30173047 296.48751143 -144.30134462 295.59412682 -148.49767017 293.84875584 C-149.38792896 293.39315281 -150.27818775 292.93754978 -151.19542408 292.4681406 C-152.07375904 292.023978 -152.952094 291.57981541 -153.85704517 291.12219334 C-154.95097584 290.55702 -156.0449065 289.99184666 -157.17198658 289.40954685 C-160.67823658 287.61517185 -164.18448658 285.82079685 -167.79698658 283.97204685 C-168.29198658 268.62704685 -168.29198658 268.62704685 -168.79698658 252.97204685 C-195.85698658 239.44204685 -222.91698658 225.91204685 -250.79698658 211.97204685 C-251.12698658 221.54204685 -251.45698658 231.11204685 -251.79698658 240.97204685 C-255.80410535 240.1706231 -257.94055434 239.56788823 -261.37120533 237.72204685 C-262.20329517 237.27860935 -263.03538502 236.83517185 -263.8926897 236.37829685 C-264.74798267 235.91423435 -265.60327564 235.45017185 -266.48448658 234.97204685 C-267.35138111 234.50798435 -268.21827564 234.04392185 -269.1114397 233.56579685 C-270.71094307 232.70940906 -272.30900466 231.85031907 -273.90514088 230.98767185 C-275.19232794 230.29665389 -276.49027886 229.62540071 -277.79698658 228.97204685 C-277.79698658 197.62204685 -277.79698658 166.27204685 -277.79698658 133.97204685 C-255.9635363 122.48075723 -255.9635363 122.48075723 -247.06155872 118.02401829 C-246.02866996 117.50502999 -244.99578119 116.9860417 -243.93159276 116.45132649 C-240.5506302 114.7531427 -237.16834133 113.05761982 -233.78600025 111.36218357 C-231.957224 110.44441767 -230.12859559 109.52635769 -228.2999874 108.60825698 C-220.37769105 104.63067819 -212.45319333 100.65749745 -204.52801248 96.6856696 C-202.46406245 95.65128687 -200.4001455 94.61683818 -198.33623433 93.58237791 C-185.47854946 87.1380753 -172.62000649 80.6954869 -159.75950623 74.25680447 C-156.80022658 72.77519054 -153.84095796 71.29355459 -150.88170338 69.8118906 C-150.14636808 69.44371877 -149.41103277 69.07554694 -148.65341458 68.69621839 C-136.69173656 62.70684107 -124.73491937 56.70782373 -112.77997669 50.70501576 C-100.47346098 44.52589201 -88.16244656 38.35580797 -75.84701997 32.1944629 C-68.94480775 28.74102682 -62.04466449 25.28358822 -55.14960766 21.81588459 C-49.2924641 18.87019216 -43.43134031 15.93262021 -37.56479629 13.00569098 C-34.57352541 11.51297288 -31.58510538 10.01516676 -28.60036564 8.50939083 C-25.36620282 6.8785565 -22.12502943 5.26259999 -18.88162708 3.65023899 C-17.93932733 3.17069165 -16.99702758 2.69114431 -16.02617329 2.19706523 C-10.28977626 -0.62976712 -6.28308886 -2.30917124 0 0 Z " fill="#831313" transform="translate(277.796986579895,1.0279531478881836)"/>
<path d="M0 0 C0.96658381 0.48540788 1.93316763 0.97081575 2.92904186 1.47093296 C4.6052486 2.30176647 4.6052486 2.30176647 6.31531811 3.1493845 C7.53882136 3.77095466 8.76220612 4.39275811 9.98548412 5.01477146 C11.28471049 5.66441235 12.5844633 6.31300129 13.88469982 6.96061802 C17.4063188 8.71843496 20.9203222 10.49100244 24.43308568 12.26643538 C28.10930107 14.12145444 31.79217063 15.96316794 35.47429943 17.8064127 C41.65257662 20.90152695 47.82641294 24.00534426 53.99720287 27.1153574 C62.70951172 31.50624567 71.42982445 35.88104638 80.15173495 40.25282371 C86.91650846 43.64435064 93.67904139 47.04034217 100.44129467 50.4368906 C101.16837509 50.80201653 101.89545552 51.16714246 102.64456868 51.54333282 C106.8159324 53.63840558 110.98617155 55.73568649 115.15467548 57.8364439 C116.41977498 58.47366549 117.68521235 59.11021678 118.95100307 59.74606419 C120.6722466 60.61089325 122.39211639 61.47845482 124.11190319 62.3461771 C125.07660188 62.831962 126.04130056 63.31774691 127.03523254 63.81825256 C129.20301342 64.97204685 129.20301342 64.97204685 130.20301342 65.97204685 C130.29570341 67.32299667 130.32048668 68.67871776 130.31653881 70.03283787 C130.31646328 70.89365467 130.31638775 71.75447147 130.31630993 72.64137363 C130.31114864 73.57678486 130.30598736 74.51219608 130.30066967 75.4759531 C130.29854725 76.90547558 130.29854725 76.90547558 130.29638195 78.3638773 C130.29076494 81.4207985 130.27820958 84.47764762 130.26551342 87.53454685 C130.26050061 89.60160309 130.25593733 91.66866047 130.25184155 93.73571873 C130.24078998 98.81452273 130.22351397 103.89327255 130.20301342 108.97204685 C121.7677865 113.21598587 113.3334539 117.43841789 104.76551342 121.40954685 C97.85143821 124.64583216 91.09226108 128.09978559 84.37122631 131.71765232 C79.54554396 134.30073427 74.66456302 136.7232141 69.70301342 139.03454685 C68.74056713 139.4833823 68.74056713 139.4833823 67.75867748 139.94128513 C63.34228725 141.97204685 63.34228725 141.97204685 62.20301342 141.97204685 C62.20301342 128.11204685 62.20301342 114.25204685 62.20301342 99.97204685 C59.23301342 98.98204685 59.23301342 98.98204685 56.20301342 97.97204685 C54.76849675 97.33528341 53.34765781 96.66652095 51.94462109 95.9631052 C51.15173687 95.56803776 50.35885265 95.17297031 49.54194164 94.76593113 C48.69097912 94.33685459 47.84001659 93.90777805 46.96326733 93.4656992 C46.05174908 93.0100861 45.14023083 92.554473 44.20109081 92.08505344 C41.19200697 90.57981588 38.18579857 89.06892703 35.17957592 87.55798435 C33.07431334 86.50348524 30.96887222 85.4493425 28.86326122 84.39553928 C23.31429576 81.61724017 17.76774462 78.83415434 12.22169018 76.05004978 C6.62964555 73.24386962 1.03539268 70.44209948 -4.55870533 67.6400156 C-12.79478846 63.5140265 -21.02965861 59.38563074 -29.26329517 55.2547617 C-35.80118469 51.9749074 -42.34002073 48.69696721 -48.88194752 45.42517185 C-49.83547643 44.94816617 -49.83547643 44.94816617 -50.80826855 44.46152401 C-54.13016331 42.80097197 -57.45645486 41.14982562 -60.78917408 39.51110935 C-61.45046314 39.18497654 -62.1117522 38.85884373 -62.79308033 38.5228281 C-64.09898411 37.87937863 -65.40639004 37.23897251 -66.71495533 36.6009531 C-69.43129901 35.2563902 -71.63809673 34.1309367 -73.79698658 31.97204685 C-60.61304714 24.97617049 -47.36809872 18.10827211 -34.0399065 11.39099216 C-31.97720676 10.34868188 -29.91703537 9.30135505 -27.85924244 8.2493906 C-24.83767277 6.70529096 -21.80861728 5.17689948 -18.77745533 3.65173435 C-17.86183323 3.18000797 -16.94621113 2.70828159 -16.0028429 2.22226048 C-15.14366764 1.7940601 -14.28449238 1.36585972 -13.3992815 0.92468357 C-12.652728 0.54625309 -11.90617451 0.16782261 -11.13699818 -0.22207546 C-7.19669812 -1.57907724 -3.90508676 -1.43520396 0 0 Z " fill="#B0B0B0" transform="translate(277.796986579895,1.0279531478881836)"/>
<path d="M0 0 C0 17.16 0 34.32 0 52 C-5.878125 54.97 -5.878125 54.97 -11.875 58 C-13.10976074 58.62648437 -14.34452148 59.25296875 -15.61669922 59.8984375 C-16.58623535 60.38570312 -17.55577148 60.87296875 -18.5546875 61.375 C-19.54968262 61.87773437 -20.54467773 62.38046875 -21.56982422 62.8984375 C-24 64 -24 64 -26 64 C-26 54.1 -26 44.2 -26 34 C-28.72667938 35.3655603 -31.45335876 36.73112061 -34.26266479 38.13806152 C-59.24426901 50.64874606 -84.2278499 63.15547379 -109.21360426 75.65786746 C-112.48567977 77.29515598 -115.75773785 78.93247934 -119.02978516 80.56982422 C-119.68121456 80.89580123 -120.33264396 81.22177824 -121.00381364 81.55763334 C-131.56341649 86.84179076 -142.12160341 92.12877138 -152.67927335 97.41678947 C-163.50558431 102.83928344 -174.33340295 108.2587575 -185.16263878 113.67540789 C-191.84938166 117.02015414 -198.5349253 120.36727435 -205.21897317 123.71740305 C-210.33707599 126.28234565 -215.45726862 128.84309277 -220.57826996 131.40224266 C-222.68413283 132.45545045 -224.78930439 133.51004175 -226.89374924 134.56608009 C-229.75513485 136.00170906 -232.61890935 137.43245322 -235.48336792 138.86193848 C-236.32576897 139.28605184 -237.16817001 139.71016521 -238.03609836 140.14713049 C-238.79946069 140.52682061 -239.56282303 140.90651073 -240.34931755 141.2977066 C-241.01079037 141.62882273 -241.67226318 141.95993886 -242.35378063 142.30108881 C-244 143 -244 143 -246 143 C-246 153.56 -246 164.12 -246 175 C-249.83625 177.000625 -253.6725 179.00125 -257.625 181.0625 C-258.82334473 181.69808838 -260.02168945 182.33367676 -261.25634766 182.98852539 C-262.21589355 183.47828857 -263.17543945 183.96805176 -264.1640625 184.47265625 C-265.13811035 184.98062744 -266.1121582 185.48859863 -267.11572266 186.01196289 C-271.50474389 187.51546458 -274.50435804 186.62207997 -278.70068359 184.87670898 C-280.03607178 184.19330444 -280.03607178 184.19330444 -281.3984375 183.49609375 C-282.27677246 183.05193115 -283.15510742 182.60776855 -284.06005859 182.15014648 C-285.15398926 181.58497314 -286.24791992 181.0197998 -287.375 180.4375 C-290.88125 178.643125 -294.3875 176.84875 -298 175 C-298.33 164.77 -298.66 154.54 -299 144 C-326.06 130.47 -353.12 116.94 -381 103 C-381.33 112.57 -381.66 122.14 -382 132 C-386.00711877 131.19857625 -388.14356776 130.59584138 -391.57421875 128.75 C-392.40630859 128.3065625 -393.23839844 127.863125 -394.09570312 127.40625 C-394.95099609 126.9421875 -395.80628906 126.478125 -396.6875 126 C-397.55439453 125.5359375 -398.42128906 125.071875 -399.31445312 124.59375 C-400.91395649 123.73736221 -402.51201808 122.87827222 -404.1081543 122.015625 C-405.39534136 121.32460704 -406.69329228 120.65335386 -408 120 C-408 102.51 -408 85.02 -408 67 C-386.58852679 77.14227679 -386.58852679 77.14227679 -379.625 80.9375 C-372.14375022 84.9455371 -364.54617243 88.63387675 -356.86279297 92.23657227 C-349.95869582 95.49366956 -343.19525796 98.97463715 -336.47851562 102.6015625 C-332.11881324 104.9433901 -327.71983481 107.0542191 -323.18310547 109.03076172 C-319.79508693 110.53494798 -316.49369789 112.20029192 -313.1875 113.875 C-311.79037229 114.57814031 -310.39323681 115.28126519 -308.99609375 115.984375 C-308.31788574 116.32662109 -307.63967773 116.66886719 -306.94091797 117.02148438 C-304.21405882 118.39623299 -301.48211713 119.76073652 -298.75 121.125 C-297.33267578 121.83462891 -297.33267578 121.83462891 -295.88671875 122.55859375 C-293.84970277 123.57572352 -291.81041894 124.5883176 -289.76953125 125.59765625 C-288.71121094 126.12230469 -287.65289062 126.64695312 -286.5625 127.1875 C-285.14130859 127.88939453 -285.14130859 127.88939453 -283.69140625 128.60546875 C-281 130 -281 130 -278.38671875 131.64453125 C-274.91815869 133.61440088 -271.83078243 133.7270098 -268 133 C-265.77611706 132.03928257 -263.79213133 130.87342474 -261.72265625 129.61328125 C-258.3737156 127.62890178 -254.92639428 125.91018341 -251.4375 124.1875 C-250.05076578 123.49872907 -248.66404728 122.80992646 -247.27734375 122.12109375 C-246.57464355 121.77288574 -245.87194336 121.42467773 -245.14794922 121.06591797 C-241.59437549 119.30246004 -238.04749838 117.52563861 -234.5 115.75 C-232.63009239 114.81492732 -230.76010267 113.88002374 -228.88964844 112.94604492 C-227.54786899 112.27428841 -226.20751812 111.59967504 -224.86816406 110.9230957 C-224.16401367 110.56820068 -223.45986328 110.21330566 -222.734375 109.84765625 C-222.09725586 109.52547119 -221.46013672 109.20328613 -220.80371094 108.87133789 C-219.15129484 108.07308761 -217.45160435 107.37468637 -215.75 106.6875 C-212.3978109 105.29329408 -209.36575964 103.48401638 -206.25 101.625 C-201.60951781 98.87402108 -196.9591507 96.53098154 -192.0234375 94.3671875 C-188.4214945 92.73840191 -184.90171455 90.97196384 -181.375 89.1875 C-175.85626906 86.39832303 -170.29904901 83.72193468 -164.6875 81.125 C-157.67677943 77.86820383 -150.83774644 74.33764476 -144.01196289 70.71142578 C-133.00045364 64.86327766 -121.83721496 59.38362043 -110.5625 54.0625 C-103.46472934 50.71183725 -96.49840386 47.19574322 -89.59399414 43.46508789 C-82.68343715 39.76355257 -75.60366346 36.43897931 -68.51708984 33.09057617 C-61.98148293 29.98781878 -55.57509336 26.71154469 -49.2109375 23.2734375 C-43.27873657 20.09141402 -37.21712466 17.23067437 -31.11572266 14.38989258 C-24.80528543 11.43199683 -18.64144577 8.24381346 -12.51757812 4.91796875 C-3.42651545 0 -3.42651545 0 0 0 Z " fill="#543E21" transform="translate(408,110)"/>
<path d="M0 0 C0 13.86 0 27.72 0 42 C-7.92 45.96 -7.92 45.96 -16 50 C-18.495625 51.258125 -20.99125 52.51625 -23.5625 53.8125 C-30.1409641 57.12013232 -36.78468847 60.28261459 -43.4375 63.4375 C-51.7547665 67.38741976 -59.92600196 71.5359122 -68.0390625 75.88671875 C-77.89037516 81.16472482 -87.90033451 85.99036411 -98.125 90.5 C-105.33676667 93.68303022 -112.12811202 97.21584731 -118.90625 101.23046875 C-122.58029918 103.33191354 -126.34715543 105.03245986 -130.22265625 106.72265625 C-133.39662673 108.18241482 -136.43608465 109.82188382 -139.5 111.5 C-144.25969136 114.10077142 -149.05227924 116.43514123 -154.0078125 118.6328125 C-159.71428405 121.24020812 -165.29242291 124.11266764 -170.89306641 126.93847656 C-174.38278154 128.69667835 -177.87927088 130.44129612 -181.375 132.1875 C-182.6966185 132.8489505 -184.01823321 133.51040859 -185.33984375 134.171875 C-187.62108084 135.31279004 -189.90500912 136.44751981 -192.19140625 137.578125 C-193.09761719 138.02671875 -194.00382812 138.4753125 -194.9375 138.9375 C-196.09572266 139.50791016 -196.09572266 139.50791016 -197.27734375 140.08984375 C-198.97879164 140.8804974 -198.97879164 140.8804974 -200 142 C-207.21182266 142.4729064 -207.21182266 142.4729064 -210.5 140.5 C-211.2425 139.7575 -211.2425 139.7575 -212 139 C-209.23723823 139.52268466 -206.6739124 140.10869587 -204 141 C-204.23396484 139.93458984 -204.23396484 139.93458984 -204.47265625 138.84765625 C-204.66730469 137.92855469 -204.86195313 137.00945312 -205.0625 136.0625 C-205.25972656 135.14597656 -205.45695313 134.22945312 -205.66015625 133.28515625 C-205.77230469 132.53105469 -205.88445312 131.77695313 -206 131 C-205.67 130.67 -205.34 130.34 -205 130 C-204.87795531 127.80565168 -204.82021676 125.60767505 -204.7890625 123.41015625 C-204.76099738 122.05532639 -204.73233293 120.70050883 -204.703125 119.34570312 C-204.6618115 117.20158179 -204.624941 115.05769106 -204.59863281 112.91333008 C-204.57109005 110.84928478 -204.52522533 108.78629693 -204.4765625 106.72265625 C-204.45674316 105.48265869 -204.43692383 104.24266113 -204.41650391 102.96508789 C-204.27905762 101.98660889 -204.14161133 101.00812988 -204 100 C-200.77208445 97.8480563 -199.71599191 97.79913557 -196 98 C-196 97.34 -196 96.68 -196 96 C-194.70990357 95.49596232 -193.41786211 94.99690074 -192.125 94.5 C-191.40570313 94.2215625 -190.68640625 93.943125 -189.9453125 93.65625 C-188 93 -188 93 -186 93 C-186 92.34 -186 91.68 -186 91 C-183.03 90.505 -183.03 90.505 -180 90 C-180 89.34 -180 88.68 -180 88 C-176.86501708 86.14223235 -174.62528568 85.79859524 -171 86 C-170.835 85.236875 -170.67 84.47375 -170.5 83.6875 C-168.54890775 80.19179305 -166.74274875 79.69175187 -163.04296875 78.4921875 C-160.63755447 77.91268043 -158.4633298 77.76906283 -156 78 C-156 77.01 -156 76.02 -156 75 C-154.68 75.33 -153.36 75.66 -152 76 C-152 75.34 -152 74.68 -152 74 C-151.35933594 73.75765625 -150.71867187 73.5153125 -150.05859375 73.265625 C-144.73668468 71.20348438 -139.89082518 68.93449511 -135 66 C-132.18806487 64.43781382 -131.28584726 64 -128 64 C-128 63.34 -128 62.68 -128 62 C-126.68 62 -125.36 62 -124 62 C-124 61.34 -124 60.68 -124 60 C-118.54906542 55.8364138 -112.79373633 53.45166045 -106.2265625 51.703125 C-103.08390051 50.71070542 -100.71803989 48.84826713 -98 47 C-94.99666796 45.67735447 -91.96011619 44.45897026 -88.9140625 43.23828125 C-86.44960056 42.1910501 -84.22581473 41.06535759 -81.9375 39.6875 C-79 38 -79 38 -76 38 C-76 37.34 -76 36.68 -76 36 C-75.34 36 -74.68 36 -74 36 C-73.67 35.01 -73.34 34.02 -73 33 C-71.35 33 -69.7 33 -68 33 C-67.67 32.34 -67.34 31.68 -67 31 C-64.67843403 30.59270772 -62.3431213 30.25561323 -60 30 C-60 29.01 -60 28.02 -60 27 C-56.04 26.01 -52.08 25.02 -48 24 C-48 23.34 -48 22.68 -48 22 C-46.41800369 21.35089846 -44.83434276 20.70585306 -43.25 20.0625 C-42.36828125 19.70285156 -41.4865625 19.34320313 -40.578125 18.97265625 C-38.38813896 18.14643424 -36.28101729 17.50630057 -34 17 C-33.89175157 18.6026782 -33.81429355 20.20745748 -33.75 21.8125 C-33.70359375 22.70582031 -33.6571875 23.59914063 -33.609375 24.51953125 C-34 27 -34 27 -35.765625 28.82421875 C-38 30 -38 30 -42 30 C-42 36.93 -42 43.86 -42 51 C-38.24829576 49.34922098 -38.24829576 49.34922098 -35 47 C-34.89524132 45.37624045 -34.81597438 43.75079729 -34.75 42.125 C-34.31478344 37.28926046 -34.31478344 37.28926046 -31.6875 34.875 C-29 34 -29 34 -25 34 C-25.02618408 33.34926514 -25.05236816 32.69853027 -25.0793457 32.02807617 C-25.18323862 29.08146277 -25.2482992 26.13523399 -25.3125 23.1875 C-25.3753418 21.65125977 -25.3753418 21.65125977 -25.43945312 20.08398438 C-25.48500918 17.30506473 -25.47983773 14.7383743 -25 12 C-22.53102287 9.73240763 -21.32803642 9 -18 9 C-17.67 8.01 -17.34 7.02 -17 6 C-15.01463373 5.29094062 -13.01089078 4.63305821 -11 4 C-9.77698636 3.31732644 -8.56848848 2.60806943 -7.375 1.875 C-4 0 -4 0 0 0 Z " fill="#4B0806" transform="translate(340,102)"/>
<path d="M0 0 C0 0.66 0 1.32 0 2 C0.94875 2.28875 1.8975 2.5775 2.875 2.875 C6 4 6 4 8 6 C6.02 7.32 4.04 8.64 2 10 C3.41468311 10.96125903 4.8318364 11.91888325 6.25 12.875 C7.43335938 13.67550781 7.43335938 13.67550781 8.640625 14.4921875 C10.71602061 15.81851648 12.7932453 16.91615145 15 18 C15.33 18.33 15.66 18.66 16 19 C16.7425 19.144375 17.485 19.28875 18.25 19.4375 C21.01652996 20.00338113 23.41026964 20.89011556 26 22 C26 22.66 26 23.32 26 24 C27.08539063 24.20882812 28.17078125 24.41765625 29.2890625 24.6328125 C35.11216314 26.09050905 40.13690571 29.0159878 45.375 31.875 C51.75057477 35.33194094 58.02099841 38.58031117 64.83056641 41.10229492 C67.75406243 42.31202876 70.27375639 43.95829828 72.90625 45.6953125 C76.77218336 48.10430828 80.89974299 50.02549099 85 52 C82.64046906 54.35953094 81.22104383 54.49141413 78 55 C78 55.66 78 56.32 78 57 C80.97 57.99 80.97 57.99 84 59 C84 59.99 84 60.98 84 62 C82.02 62.99 82.02 62.99 80 64 C80 64.66 80 65.32 80 66 C82.46326712 67.6446674 82.46326712 67.6446674 85 69 C80.41540762 73.01151833 75.56248225 76.964426 69.26171875 77.02734375 C66.81259223 76.78139186 64.41819372 76.45588898 62 76 C62 75.34 62 74.68 62 74 C61.40832031 74.30035156 60.81664062 74.60070312 60.20703125 74.91015625 C59.41683594 75.29042969 58.62664062 75.67070313 57.8125 76.0625 C57.03519531 76.44535156 56.25789063 76.82820313 55.45703125 77.22265625 C49.97640263 78.95659122 45.4423199 75.9231785 40.625 73.4375 C39.92818115 73.08397461 39.2313623 72.73044922 38.51342773 72.36621094 C33.01728066 69.56330604 27.58312587 66.64779871 22.15258789 63.72045898 C18.33239633 61.67325801 14.49262224 59.8219532 10.5078125 58.125 C4.91887502 55.61781309 -0.51767153 52.77592016 -5.98486328 50.015625 C-9.31898818 48.33523251 -12.65978395 46.66824614 -16 45 C-16 44.34 -16 43.68 -16 43 C-16.99 42.7525 -17.98 42.505 -19 42.25 C-22.52943339 41.24361538 -25.62093813 39.77907933 -28.8671875 38.0859375 C-32.50604724 36.23318474 -36.25686723 34.62895593 -40 33 C-40 32.34 -40 31.68 -40 31 C-41.32 31 -42.64 31 -44 31 C-44 31.66 -44 32.32 -44 33 C-46.64 33.33 -49.28 33.66 -52 34 C-52.23460937 33.36578125 -52.46921875 32.7315625 -52.7109375 32.078125 C-53.82290908 29.81749261 -53.82290908 29.81749261 -56.1640625 29.171875 C-56.97617188 29.03265625 -57.78828125 28.8934375 -58.625 28.75 C-59.44226563 28.60046875 -60.25953125 28.4509375 -61.1015625 28.296875 C-61.72804687 28.19890625 -62.35453125 28.1009375 -63 28 C-62.703125 26.1015625 -62.703125 26.1015625 -62 24 C-58.75 22.375 -58.75 22.375 -55 21 C-54.0925 20.608125 -53.185 20.21625 -52.25 19.8125 C-50 19 -50 19 -47 19 C-46.34 19.66 -45.68 20.32 -45 21 C-35.33422064 20.50851969 -27.12292706 16.04520902 -19 11 C-18.67 10.34 -18.34 9.68 -18 9 C-19.32 8.34 -20.64 7.68 -22 7 C-20.67854856 3.03564569 -19.14368661 2.61515744 -15.5 0.6875 C-9.4099675 -2.27738425 -6.28445669 -2.30430079 0 0 Z " fill="#E4E4E5" transform="translate(280,11)"/>
<path d="M0 0 C21.41147321 10.14227679 21.41147321 10.14227679 28.375 13.9375 C35.85624978 17.9455371 43.45382757 21.63387675 51.13720703 25.23657227 C58.04130418 28.49366956 64.80474204 31.97463715 71.52148438 35.6015625 C75.88118676 37.9433901 80.28016519 40.0542191 84.81689453 42.03076172 C88.20491307 43.53494798 91.50630211 45.20029192 94.8125 46.875 C96.20962771 47.57814031 97.60676319 48.28126519 99.00390625 48.984375 C99.68211426 49.32662109 100.36032227 49.66886719 101.05908203 50.02148438 C103.78594118 51.39623299 106.51788287 52.76073652 109.25 54.125 C110.18972656 54.59550781 111.12945312 55.06601563 112.09765625 55.55078125 C114.18676645 56.59393049 116.27819859 57.63243429 118.37109375 58.66796875 C119.46550781 59.21066406 120.55992188 59.75335938 121.6875 60.3125 C122.68136719 60.80363281 123.67523438 61.29476562 124.69921875 61.80078125 C127 63 127 63 128 64 C128.09340434 65.62674778 128.11745171 67.25754051 128.11352539 68.88696289 C128.11344986 69.92796646 128.11337433 70.96897003 128.11329651 72.04151917 C128.10813522 73.1737944 128.10297394 74.30606964 128.09765625 75.47265625 C128.09553383 77.20182533 128.09553383 77.20182533 128.09336853 78.96592712 C128.08775005 82.66481064 128.07519442 86.36363464 128.0625 90.0625 C128.05748738 92.56315017 128.05292406 95.06380129 128.04882812 97.56445312 C128.03777462 103.70965588 128.02101852 109.85482369 128 116 C122 114 122 114 110 108 C109.67 97.77 109.34 87.54 109 77 C81.94 63.47 54.88 49.94 27 36 C26.67 45.57 26.34 55.14 26 65 C21.99288123 64.19857625 19.85643224 63.59584138 16.42578125 61.75 C15.17764648 61.08484375 15.17764648 61.08484375 13.90429688 60.40625 C13.04900391 59.9421875 12.19371094 59.478125 11.3125 59 C10.44560547 58.5359375 9.57871094 58.071875 8.68554688 57.59375 C7.08604351 56.73736221 5.48798192 55.87827222 3.8918457 55.015625 C2.60465864 54.32460704 1.30670772 53.65335386 0 53 C0 35.51 0 18.02 0 0 Z " fill="#71542D" transform="translate(0,177)"/>
<path d="M0 0 C0 13.86 0 27.72 0 42 C-17.73476563 50.86738281 -17.73476563 50.86738281 -25.4375 54.4375 C-32.35157521 57.6737853 -39.11075234 61.12773874 -45.83178711 64.74560547 C-50.65746946 67.32868742 -55.5384504 69.75116725 -60.5 72.0625 C-61.46244629 72.51133545 -61.46244629 72.51133545 -62.44433594 72.96923828 C-66.86072617 75 -66.86072617 75 -68 75 C-68 61.14 -68 47.28 -68 33 C-52 25 -52 25 -44.05078125 21.02734375 C-39.25312299 18.62933163 -34.45772579 16.22687529 -29.6647644 13.81948853 C-26.87233 12.41710625 -24.07915166 11.01620955 -21.28588867 9.61547852 C-19.86334597 8.90164179 -18.44115631 8.18710114 -17.01928711 7.47192383 C-14.92394482 6.41821866 -12.82734096 5.36706286 -10.73046875 4.31640625 C-10.09618454 3.9966835 -9.46190033 3.67696075 -8.80839539 3.34754944 C-2.11415525 0 -2.11415525 0 0 0 Z " fill="#797979" transform="translate(408,68)"/>
<path d="M0 0 C2 2 2 2 2.3125 5.4375 C2 9 2 9 0.71402556 10.59416753 C-1.04449704 12.03649618 -2.70420846 13.03955479 -4.73690891 14.05581951 C-5.8726387 14.62908931 -5.8726387 14.62908931 -7.03131253 15.21394032 C-8.27682563 15.83116616 -8.27682563 15.83116616 -9.54750061 16.46086121 C-10.43070006 16.90444814 -11.31389952 17.34803506 -12.22386259 17.80506402 C-15.19206287 19.29398679 -18.16448733 20.77427174 -21.13696289 22.25463867 C-23.26246448 23.31860305 -25.3877076 24.38308391 -27.51271057 25.44804382 C-32.69033465 28.04107713 -37.87073396 30.62849878 -43.0524748 33.21329447 C-49.08334768 36.22192359 -55.11116591 39.23664868 -61.13889449 42.25157098 C-71.89062895 47.62903325 -82.64532484 53.00054613 -93.40161133 58.36889648 C-103.84643298 63.58180045 -114.28885374 68.79947514 -124.72875977 74.0222168 C-136.0918375 79.70678191 -147.45615252 85.38885877 -158.8227157 91.06645185 C-160.0337266 91.67135364 -161.24473724 92.27625596 -162.4557476 92.88115883 C-163.05162903 93.17879777 -163.64751047 93.47643672 -164.26144891 93.78309503 C-168.46760998 95.8842331 -172.67291172 97.98708476 -176.87791634 100.09053612 C-182.53208896 102.91856108 -188.18823206 105.74260502 -193.84595299 108.56352425 C-195.92762404 109.60223035 -198.00860972 110.64231124 -200.08887482 111.68383026 C-202.91724961 113.0996173 -205.74801616 114.51049934 -208.57948303 115.92008972 C-209.82834222 116.54735381 -209.82834222 116.54735381 -211.10243088 117.18728989 C-216.77167099 120 -216.77167099 120 -219 120 C-219 130.56 -219 141.12 -219 152 C-222.96 153.98 -222.96 153.98 -227 156 C-227.66 155.67 -228.32 155.34 -229 155 C-229.03009686 149.39398423 -229.01461022 143.7906192 -228.95727539 138.18481445 C-228.94415374 136.27893503 -228.94338492 134.37292822 -228.95532227 132.46704102 C-228.97034913 129.72284883 -228.94063588 126.9821845 -228.90234375 124.23828125 C-228.91659897 123.38913651 -228.93085419 122.53999176 -228.94554138 121.66511536 C-228.80458394 115.87661104 -228.80458394 115.87661104 -226.48709106 113.35165405 C-223.72804463 111.32019344 -221.25873279 110.08624426 -218 109 C-216.32707385 108.01050727 -214.66173868 107.00816782 -213 106 C-210.41274706 104.57217388 -207.80099305 103.19159544 -205.1875 101.8125 C-204.43903809 101.41740234 -203.69057617 101.02230469 -202.91943359 100.61523438 C-191.97697997 94.86210418 -180.90359152 89.39377645 -169.75 84.0625 C-168.93934082 83.67255859 -168.12868164 83.28261719 -167.29345703 82.88085938 C-166.53145996 82.51927734 -165.76946289 82.15769531 -164.984375 81.78515625 C-164.31116211 81.46426025 -163.63794922 81.14336426 -162.94433594 80.81274414 C-160.98205564 79.99249915 -159.07362777 79.46000304 -157 79 C-157 78.34 -157 77.68 -157 77 C-156.43152344 76.82984375 -155.86304688 76.6596875 -155.27734375 76.484375 C-154.50519531 76.24203125 -153.73304688 75.9996875 -152.9375 75.75 C-152.18339844 75.51796875 -151.42929688 75.2859375 -150.65234375 75.046875 C-147.90164986 73.96118139 -145.43574238 72.57956008 -142.8894043 71.08349609 C-139.64585324 69.22345221 -136.28897922 67.5925121 -132.9375 65.9375 C-132.25623047 65.59912109 -131.57496094 65.26074219 -130.87304688 64.91210938 C-129.54110622 64.25061723 -128.20829106 63.59088236 -126.87451172 62.93310547 C-125.11683872 62.05816066 -123.37232154 61.15692669 -121.62890625 60.25390625 C-119 59 -119 59 -117 59 C-117 58.34 -117 57.68 -117 57 C-116.37351562 56.81824219 -115.74703125 56.63648438 -115.1015625 56.44921875 C-113.87566406 56.07216797 -113.87566406 56.07216797 -112.625 55.6875 C-111.81289063 55.44386719 -111.00078125 55.20023438 -110.1640625 54.94921875 C-107.66815371 54.08631815 -107.66815371 54.08631815 -106 51 C-103.9765625 50.12109375 -103.9765625 50.12109375 -101.625 49.4375 C-99.25343221 48.73554766 -97.14544318 48.07773687 -94.9609375 46.91015625 C-93 46 -93 46 -89 46 C-89 45.34 -89 44.68 -89 44 C-86.525 43.505 -86.525 43.505 -84 43 C-84 42.34 -84 41.68 -84 41 C-83.38068604 40.72325439 -82.76137207 40.44650879 -82.12329102 40.16137695 C-79.26782275 38.88255087 -76.41516503 37.59756636 -73.5625 36.3125 C-72.58861328 35.87744141 -71.61472656 35.44238281 -70.61132812 34.99414062 C-65.26549176 32.58046869 -60.07431457 30.04084383 -54.98950195 27.11450195 C-52.29629769 25.60579199 -49.52452891 24.29329945 -46.7265625 22.9921875 C-44.92306066 22.06279351 -44.92306066 22.06279351 -43.52734375 20.46875 C-41.71254467 18.72357237 -40.34886341 18.29895638 -37.9375 17.625 C-33.4044503 16.23990148 -29.41507406 14.25557183 -25.26171875 11.98828125 C-23 11 -23 11 -19 11 C-18.835 10.360625 -18.67 9.72125 -18.5 9.0625 C-17 7 -17 7 -15.0859375 6.51171875 C-13.06424845 6.2724022 -11.03158061 6.13106972 -9 6 C-9 5.34 -9 4.68 -9 4 C-6.03 2.68 -3.06 1.36 0 0 Z " fill="#3B2710" transform="translate(381,133)"/>
<path d="M0 0 C1.32 0 2.64 0 4 0 C4 0.66 4 1.32 4 2 C5.175625 2.350625 6.35125 2.70125 7.5625 3.0625 C14.64173168 5.39955405 21.29319696 8.77472581 28 12 C28 12.66 28 13.32 28 14 C28.84433594 14.25910156 29.68867188 14.51820312 30.55859375 14.78515625 C34.21315767 16.07524635 37.61825322 17.67992662 41.0625 19.4375 C41.66126953 19.73720703 42.26003906 20.03691406 42.87695312 20.34570312 C45.5516475 21.69623336 48.15905172 23.09629817 50.72265625 24.6484375 C53.09644607 26.15784128 53.09644607 26.15784128 56.375 27.1875 C60.45007953 28.65269714 64.20123927 30.62845022 68 32.6875 C73.50948453 35.67005707 79.03651368 38.60509472 84.625 41.4375 C85.28757812 41.77934326 85.95015625 42.12118652 86.6328125 42.47338867 C90.04634522 44.19283337 93.16399625 45.67809759 97 46 C99.03144641 45.06553465 101.03533587 44.06775224 103 43 C103.99 43 104.98 43 106 43 C106 43.66 106 44.32 106 45 C114.52529046 45.99862405 119.87185174 43.55334185 127 39 C127 38.34 127 37.68 127 37 C125.68 36.34 124.36 35.68 123 35 C123.33 34.01 123.66 33.02 124 32 C126.0625 31.3125 126.0625 31.3125 128 31 C128 30.01 128 29.02 128 28 C126.02 27.34 124.04 26.68 122 26 C122 25.34 122 24.68 122 24 C128.86892178 20.74630021 128.86892178 20.74630021 132.08984375 21.46875 C134 22.3125 134 22.3125 137 24 C135.84826645 26.46800047 134.95216435 28.04783565 133 30 C134.65 31.65 136.3 33.3 138 35 C136.02 35.99 134.04 36.98 132 38 C132.33 38.99 132.66 39.98 133 41 C135.01508358 41.73323796 135.01508358 41.73323796 137 42 C133.96434977 45.26809694 130.40812625 46.96094278 126.4375 48.875 C125.72456787 49.22506104 125.01163574 49.57512207 124.27709961 49.93579102 C122.84965154 50.63652651 121.42103866 51.33489471 119.99121094 52.03076172 C117.34195964 53.32030655 114.70091368 54.62594074 112.0625 55.9375 C111.29035156 56.31777344 110.51820313 56.69804688 109.72265625 57.08984375 C108.02120836 57.8804974 108.02120836 57.8804974 107 59 C100.70042351 58.67180472 95.92676717 56.30426646 90.36791992 53.46777344 C89.42711075 52.99773392 88.48630157 52.5276944 87.51698303 52.04341125 C84.41664119 50.49150295 81.32362464 48.92555004 78.23046875 47.359375 C76.0676847 46.27331516 73.90445434 45.1881437 71.74079895 44.1038208 C66.04711672 41.24744449 60.35953585 38.37912125 54.67315674 35.50823975 C48.91004753 32.6012043 43.14133869 29.70532796 37.37304688 26.80859375 C28.04008695 22.1201746 18.71049256 17.42514222 9.38565063 12.72059631 C3.59680745 9.80092229 -2.19925865 6.89596218 -8 4 C-7.67 3.34 -7.34 2.68 -7 2 C-4.69 2 -2.38 2 0 2 C0 1.34 0 0.68 0 0 Z " fill="#C9C2C0" transform="translate(236,42)"/>
<path d="M0 0 C4.06753893 1.30359119 7.37324132 2.7522783 11 5 C13.56170461 6.33535666 16.15683874 7.60202125 18.75 8.875 C23.17514949 11.05885298 27.54982073 13.25892427 31.8125 15.75 C36.62021447 18.49859645 41.76253677 20.24765249 47 22 C47 22.66 47 23.32 47 24 C47.75925781 24.21527344 48.51851562 24.43054688 49.30078125 24.65234375 C54.47936007 26.53894321 59.28400851 29.05783888 64.1875 31.5625 C66.15925156 32.56558241 68.1318696 33.56696393 70.10546875 34.56640625 C70.97324951 35.00927979 71.84103027 35.45215332 72.73510742 35.90844727 C75.07725292 37.09630916 75.07725292 37.09630916 78 38 C78 38.66 78 39.32 78 40 C78.58007812 40.17015625 79.16015625 40.3403125 79.7578125 40.515625 C89.67849539 43.5933286 89.67849539 43.5933286 93 47 C93.50116649 50.7291098 93.28896949 54.26251139 93 58 C76.17086548 50.19496489 59.60773094 41.86377969 43.02740479 33.54803467 C39.29311557 31.6756934 35.55763413 29.80573372 31.82226562 27.93554688 C24.54703708 24.29263604 17.27320195 20.64695531 10 17 C9.67 26.57 9.34 36.14 9 46 C2.23163499 44.646327 2.23163499 44.646327 0 42 C-0.56391741 38.83914007 -0.46380055 35.72092565 -0.390625 32.51953125 C-0.38496521 31.59154221 -0.37930542 30.66355316 -0.37347412 29.70744324 C-0.35107376 26.74193854 -0.30087073 23.7776398 -0.25 20.8125 C-0.22993973 18.80275182 -0.21168813 16.79298471 -0.1953125 14.78320312 C-0.15119696 9.85500371 -0.08214424 4.92770635 0 0 Z " fill="#4C3015" transform="translate(17,196)"/>
<path d="M0 0 C2.60672655 0.38618171 4.89958342 1.33317905 7.375 2.25 C11.83613655 3.17299377 13.08761616 2.08105523 17 0 C21.29203897 0.17168156 23.79257878 1.16266585 27 4 C23.535 5.485 23.535 5.485 20 7 C21.98 7.99 23.96 8.98 26 10 C26 10.66 26 11.32 26 12 C26.82371094 12.08378906 27.64742187 12.16757813 28.49609375 12.25390625 C32.79167395 13.16857271 36.20091531 14.90034281 40.0625 16.9375 C46.40788338 20.23503219 46.40788338 20.23503219 53 23 C53 23.66 53 24.32 53 25 C53.99 25.226875 54.98 25.45375 56 25.6875 C59.80957574 26.76278348 62.73442743 28.61487783 66.03125 30.7578125 C71.85796306 34.43419098 76.28514651 35.43321635 83 35 C83.76699219 34.78085938 84.53398437 34.56171875 85.32421875 34.3359375 C88.98966641 33.87574991 91.29530103 34.97479928 94.6875 36.375 C95.82574219 36.83648437 96.96398437 37.29796875 98.13671875 37.7734375 C99.77559218 38.47549242 101.40531201 39.20265601 103 40 C103 40.66 103 41.32 103 42 C104.32 41.67 105.64 41.34 107 41 C107.66 41.99 108.32 42.98 109 44 C110.485 44.495 110.485 44.495 112 45 C112 45.66 112 46.32 112 47 C108.39833602 49.17600532 104.82599985 51.1941648 100.9375 52.8125 C100.32777344 53.06644531 99.71804688 53.32039063 99.08984375 53.58203125 C93.40876169 54.71824766 88.5191749 52.01057611 83.625 49.4375 C82.2006307 48.70681705 80.77614835 47.97635442 79.3515625 47.24609375 C78.6287207 46.87210449 77.90587891 46.49811523 77.16113281 46.11279297 C73.7898413 44.37687491 70.39459367 42.68975516 67 41 C65.66653631 40.33359411 64.33320327 39.66692673 63 39 C62.34 38.67 61.68 38.34 61 38 C41.66666667 28.33333333 22.33333333 18.66666667 3 9 C3 8.34 3 7.68 3 7 C0.03 6.505 0.03 6.505 -3 6 C-2.42655063 3.13275314 -2.1385485 2.1385485 0 0 Z " fill="#B74645" transform="translate(185,60)"/>
<path d="M0 0 C0.8041333 0.40790771 1.6082666 0.81581543 2.43676758 1.23608398 C4.17769437 2.12110084 5.91312455 3.01699458 7.64355469 3.92236328 C11.61126703 5.9852686 15.62017289 7.96258437 19.62670898 9.94873047 C23.90574084 12.07343825 28.17229599 14.22269938 32.4375 16.375 C32.4375 17.365 32.4375 18.355 32.4375 19.375 C28.83421657 21.10601137 25.22970841 22.83445825 21.625 24.5625 C20.62017578 25.04525391 19.61535156 25.52800781 18.58007812 26.02539062 C16.55148807 26.99728747 14.52004745 27.96325624 12.48583984 28.92333984 C10.43341863 29.90073024 8.39204593 30.90162736 6.36181641 31.92431641 C5.3929248 32.3991748 4.4240332 32.8740332 3.42578125 33.36328125 C2.56122314 33.79809814 1.69666504 34.23291504 0.8059082 34.6809082 C-1.5625 35.375 -1.5625 35.375 -3.87426758 34.50073242 C-4.43138428 34.12924072 -4.98850098 33.75774902 -5.5625 33.375 C-5.5625 32.715 -5.5625 32.055 -5.5625 31.375 C-6.2225 31.045 -6.8825 30.715 -7.5625 30.375 C-5.5825 29.055 -3.6025 27.735 -1.5625 26.375 C-3.2125 25.055 -4.8625 23.735 -6.5625 22.375 C-4.9125 20.395 -3.2625 18.415 -1.5625 16.375 C-2.59375 16.1275 -3.625 15.88 -4.6875 15.625 C-8.56850143 14.53420937 -11.32259641 12.74566116 -14.5625 10.375 C-13.2425 8.395 -11.9225 6.415 -10.5625 4.375 C-11.490625 4.1584375 -11.490625 4.1584375 -12.4375 3.9375 C-14.5625 3.375 -14.5625 3.375 -16.5625 2.375 C-15.5625 -0.625 -15.5625 -0.625 -12.53515625 -2.5390625 C-7.61571382 -4.44183032 -4.39150567 -2.37266844 0 0 Z " fill="#A6A5A5" transform="translate(374.5625,49.625)"/>
<path d="M0 0 C1.32 0 2.64 0 4 0 C4 0.66 4 1.32 4 2 C5.175625 2.350625 6.35125 2.70125 7.5625 3.0625 C14.64173168 5.39955405 21.29319696 8.77472581 28 12 C28 12.66 28 13.32 28 14 C28.84433594 14.25910156 29.68867188 14.51820312 30.55859375 14.78515625 C34.21315767 16.07524635 37.61825322 17.67992662 41.0625 19.4375 C41.66126953 19.73720703 42.26003906 20.03691406 42.87695312 20.34570312 C45.5516475 21.69623336 48.15905172 23.09629817 50.72265625 24.6484375 C53.09644607 26.15784128 53.09644607 26.15784128 56.375 27.1875 C60.73658003 28.74460919 64.73971251 30.88005841 68.8125 33.0625 C69.4710498 33.41530029 70.12959961 33.76810059 70.80810547 34.1315918 C73.62428002 35.6569895 76.33326386 37.2221759 79 39 C69.36560875 42.23473523 62.58735238 39.35233537 53.69921875 35.07666016 C51.35745032 33.90546238 49.02094501 32.72649389 46.6875 31.5390625 C45.42572977 30.90443405 44.16359659 30.27052676 42.90112305 29.63729858 C39.60035157 27.97933861 36.30449286 26.31184209 33.00964355 24.64215088 C29.67860002 22.95619326 26.34304211 21.27921935 23.0078125 19.6015625 C18.102983 17.13331004 13.20069631 14.66012369 8.30078125 12.18212891 C2.87503165 9.43895356 -2.55895484 6.71270055 -8 4 C-7.67 3.34 -7.34 2.68 -7 2 C-4.69 2 -2.38 2 0 2 C0 1.34 0 0.68 0 0 Z " fill="#D4D0CE" transform="translate(236,42)"/>
<path d="M0 0 C2.60672655 0.38618171 4.89958342 1.33317905 7.375 2.25 C11.83613655 3.17299377 13.08761616 2.08105523 17 0 C21.29203897 0.17168156 23.79257878 1.16266585 27 4 C23.535 5.485 23.535 5.485 20 7 C21.98 7.99 23.96 8.98 26 10 C26 10.66 26 11.32 26 12 C26.82371094 12.08378906 27.64742187 12.16757813 28.49609375 12.25390625 C32.79167395 13.16857271 36.20091531 14.90034281 40.0625 16.9375 C46.40788338 20.23503219 46.40788338 20.23503219 53 23 C53 23.66 53 24.32 53 25 C55.31 25.66 57.62 26.32 60 27 C60 27.99 60 28.98 60 30 C59.030625 30.28875 58.06125 30.5775 57.0625 30.875 C53.89335797 31.64214682 53.89335797 31.64214682 53 34 C52.030625 33.5153125 51.06125 33.030625 50.0625 32.53125 C49.42304443 32.2115625 48.78358887 31.891875 48.12475586 31.5625 C46.68793988 30.84400947 45.25125726 30.12525221 43.81469727 29.40625 C40.1802436 27.58764185 36.54422265 25.77244822 32.90234375 23.96875 C25.46034503 20.27648951 18.07959397 16.49874089 10.78295898 12.52539062 C8.20467229 11.12945539 5.78937337 9.92979112 3 9 C3 8.34 3 7.68 3 7 C0.03 6.505 0.03 6.505 -3 6 C-2.42655063 3.13275314 -2.1385485 2.1385485 0 0 Z " fill="#AC3534" transform="translate(185,60)"/>
<path d="M0 0 C3.59126334 0.35208464 5.19622631 1.3681721 8.1875 3.3125 C10.17922182 4.00350553 12.17911804 4.67152703 14.1875 5.3125 C15.53471283 5.95065344 16.87497118 6.60575371 18.1875 7.3125 C18.1875 7.9725 18.1875 8.6325 18.1875 9.3125 C19.095 9.51875 20.0025 9.725 20.9375 9.9375 C26.70167023 11.5893564 31.88033421 14.57793922 37.1875 17.3125 C39.01307165 18.2237992 40.84206634 19.12798593 42.67114258 20.03222656 C47.94170291 22.64112226 53.13383761 25.30436763 58.1875 28.3125 C57.6925 29.240625 57.6925 29.240625 57.1875 30.1875 C56.04556765 32.22268344 56.04556765 32.22268344 56.1875 34.3125 C57.64583358 35.93764468 57.64583358 35.93764468 59.1875 37.3125 C52.58616531 35.52835549 45.06733506 32.19233506 40.1875 27.3125 C38.8427761 26.8104533 37.47519138 26.3682421 36.09765625 25.96484375 C31.28635154 24.43165543 27.03534068 22.30983324 22.625 19.875 C21.20752971 19.10455098 19.78956255 18.33501538 18.37109375 17.56640625 C17.68192871 17.19241699 16.99276367 16.81842773 16.28271484 16.43310547 C11.02291497 13.61995219 5.92220412 11.03291124 0.1875 9.3125 C0.1875 8.6525 0.1875 7.9925 0.1875 7.3125 C-0.534375 7.168125 -1.25625 7.02375 -2 6.875 C-3.83915615 6.50716877 -5.67317137 6.11234387 -7.5 5.6875 C-9.83114219 5.07822985 -9.83114219 5.07822985 -11.8125 6.3125 C-11.8125 4.9925 -11.8125 3.6725 -11.8125 2.3125 C-10.141875 2.374375 -10.141875 2.374375 -8.4375 2.4375 C-4.18138009 2.29073724 -3.96246631 0.44027403 0 0 Z " fill="#CBCBCC" transform="translate(305.8125,25.6875)"/>
<path d="M0 0 C4.455 0.99 4.455 0.99 9 2 C8.67 19.49 8.34 36.98 8 55 C2 53 2 53 0 52 C0 34.84 0 17.68 0 0 Z " fill="#4C3413" transform="translate(128,242)"/>
<path d="M0 0 C0 17.49 0 34.98 0 53 C-6 56 -6 56 -8 56 C-8 38.84 -8 21.68 -8 4 C-1 0 -1 0 0 0 Z " fill="#65552F" transform="translate(144,241)"/>
<path d="M0 0 C0 17.16 0 34.32 0 52 C-6 55 -6 55 -8 55 C-8 37.84 -8 20.68 -8 3 C-2 0 -2 0 0 0 Z " fill="#392510" transform="translate(408,110)"/>
<path d="M0 0 C1.98 0.99 3.96 1.98 6 3 C6 3.66 6 4.32 6 5 C6.66 5 7.32 5 8 5 C8 18.86 8 32.72 8 47 C7.34 47 6.68 47 6 47 C6 47.66 6 48.32 6 49 C6.66 49 7.32 49 8 49 C8 51.31 8 53.62 8 56 C2.25 54.125 2.25 54.125 0 53 C0 35.51 0 18.02 0 0 Z " fill="#88723E" transform="translate(0,177)"/>
<path d="M0 0 C0 7.26 0 14.52 0 22 C-2.64 22.99 -5.28 23.98 -8 25 C-8.03738281 25.68707031 -8.07476562 26.37414062 -8.11328125 27.08203125 C-8.17902344 27.98308594 -8.24476563 28.88414062 -8.3125 29.8125 C-8.37050781 30.70582031 -8.42851562 31.59914062 -8.48828125 32.51953125 C-9.08336063 35.40407633 -9.60141683 36.32152127 -12 38 C-14.475 38.495 -14.475 38.495 -17 39 C-17 32.07 -17 25.14 -17 18 C-14.69 17.01 -12.38 16.02 -10 15 C-10.020625 14.25234375 -10.04125 13.5046875 -10.0625 12.734375 C-9.9977594 9.64301124 -9.82469473 6.98522312 -9 4 C-6.57874261 1.83443574 -3.3603712 0 0 0 Z " fill="#601A18" transform="translate(315,114)"/>
<path d="M0 0 C5 0 5 0 9 2 C9 12.56 9 23.12 9 34 C4 33 4 33 0 31 C0 20.77 0 10.54 0 0 Z " fill="#86713E" transform="translate(110,254)"/>
<path d="M0 0 C0.66 0 1.32 0 2 0 C2 10.56 2 21.12 2 32 C-5 36 -5 36 -7 36 C-7 25.44 -7 14.88 -7 4 C-4.69 3.34 -2.38 2.68 0 2 C0 1.34 0 0.68 0 0 Z " fill="#65552D" transform="translate(389,138)"/>
<path d="M0 0 C1.32 0 2.64 0 4 0 C4 0.66 4 1.32 4 2 C5.8871875 2.5878125 5.8871875 2.5878125 7.8125 3.1875 C11.59207554 4.46738806 15.31319533 5.84726525 19 7.375 C19.928125 7.75398438 20.85625 8.13296875 21.8125 8.5234375 C24 10 24 10 24.9375 12.5390625 C24.958125 13.35117187 24.97875 14.16328125 25 15 C24.34 15.66 23.68 16.32 23 17 C22.67 17.66 22.34 18.32 22 19 C18.31036263 17.25448133 14.62369219 15.50278104 10.9375 13.75 C9.89916016 13.25886719 8.86082031 12.76773438 7.79101562 12.26171875 C2.39857005 9.69388753 -2.86815325 7.05727041 -8 4 C-7.67 3.34 -7.34 2.68 -7 2 C-4.69 2 -2.38 2 0 2 C0 1.34 0 0.68 0 0 Z " fill="#C6C0BF" transform="translate(236,42)"/>
<path d="M0 0 C2.12240099 0.96069319 4.22719424 1.96124246 6.3125 3 C7.88451172 3.7734375 7.88451172 3.7734375 9.48828125 4.5625 C12 6 12 6 13 8 C12.360625 8.12375 11.72125 8.2475 11.0625 8.375 C10.381875 8.58125 9.70125 8.7875 9 9 C8.67 9.66 8.34 10.32 8 11 C2.56466759 10.50839669 -1.2029005 9.12206673 -5.9375 6.4375 C-7.08089844 5.79683594 -8.22429687 5.15617187 -9.40234375 4.49609375 C-10.68818359 3.75552734 -10.68818359 3.75552734 -12 3 C-12 2.34 -12 1.68 -12 1 C-7.0995008 -2.03364236 -5.26922285 -2.10768914 0 0 Z " fill="#CA5C5A" transform="translate(251,91)"/>
<path d="M0 0 C-1.15173355 2.46800047 -2.04783565 4.04783565 -4 6 C-2.35 7.65 -0.7 9.3 1 11 C-1.91911043 12.68659714 -4.72709918 14.14851361 -8 15 C-11.5625 13.25 -11.5625 13.25 -14 11 C-13.67 10.01 -13.34 9.02 -13 8 C-10.9375 7.3125 -10.9375 7.3125 -9 7 C-9 6.01 -9 5.02 -9 4 C-10.98 3.34 -12.96 2.68 -15 2 C-15 1.34 -15 0.68 -15 0 C-8.84103277 -3.46441907 -6.35012201 -3.00795253 0 0 Z " fill="#CBCACB" transform="translate(373,66)"/>
<path d="M0 0 C0 0.66 0 1.32 0 2 C0.99 2 1.98 2 3 2 C3 2.66 3 3.32 3 4 C2.14535156 4.42152344 1.29070312 4.84304687 0.41015625 5.27734375 C-1.24693359 6.09912109 -1.24693359 6.09912109 -2.9375 6.9375 C-4.03964844 7.48277344 -5.14179688 8.02804688 -6.27734375 8.58984375 C-8.84794414 9.74704978 -8.84794414 9.74704978 -10 11 C-14.57071175 10.65504062 -17.58325171 10.14340842 -21 7 C-15.25 4 -15.25 4 -13 4 C-13 3.34 -13 2.68 -13 2 C-8.11922548 -0.44038726 -5.47332932 -1.46845421 0 0 Z " fill="#AEADA9" transform="translate(353,90)"/>
<path d="M0 0 C0 0.66 0 1.32 0 2 C1.32 2.33 2.64 2.66 4 3 C1.44611107 5.9237625 -1.44109536 7.48594924 -4.875 9.25 C-6.41800781 10.06210938 -6.41800781 10.06210938 -7.9921875 10.890625 C-11.24926085 12.09193517 -12.74115386 12.03417258 -16 11 C-16 10.34 -16 9.68 -16 9 C-16.99 8.67 -17.98 8.34 -19 8 C-14.41999245 3.73585504 -6.32873093 -2.10957698 0 0 Z " fill="#BFC0BF" transform="translate(369,81)"/>
<path d="M0 0 C1.69287785 0.95495674 3.35857037 1.9590934 5 3 C6.98451771 3.71143088 8.98202112 4.38991336 11 5 C9.125 6.0625 9.125 6.0625 7 7 C6.34 6.67 5.68 6.34 5 6 C3.948125 6.515625 2.89625 7.03125 1.8125 7.5625 C-1.15485048 8.94643237 -2.79139798 9.12109938 -5.9375 8.1875 C-6.948125 7.795625 -7.95875 7.40375 -9 7 C-9 6.34 -9 5.68 -9 5 C-10.98 5.99 -10.98 5.99 -13 7 C-13 8.32 -13 9.64 -13 11 C-15.96175123 10.38722388 -17.38058783 9.74627478 -20 8 C-16.04457244 5.6732779 -12.28111544 3.66487823 -8 2 C-4.71662309 -0.18891794 -3.80441099 -0.45290607 0 0 Z " fill="#9F2A29" transform="translate(113,157)"/>
<path d="M0 0 C1.4835001 0.42257276 2.96176424 0.86356322 4.4375 1.3125 C5.67306641 1.67794922 5.67306641 1.67794922 6.93359375 2.05078125 C7.95646484 2.52064453 7.95646484 2.52064453 9 3 C9.33 3.99 9.66 4.98 10 6 C7.55634716 7.34650259 5.68063521 8.37417077 3 9 C-0.6875 7.6875 -0.6875 7.6875 -4 6 C-5.32 6 -6.64 6 -8 6 C-8 5.34 -8 4.68 -8 4 C-5.36 3.34 -2.72 2.68 0 2 C0 1.34 0 0.68 0 0 Z M-11 6 C-10.01 6.33 -9.02 6.66 -8 7 C-8.99 8.485 -8.99 8.485 -10 10 C-11.32 9.34 -12.64 8.68 -14 8 C-13.01 7.34 -12.02 6.68 -11 6 Z " fill="#991F1F" transform="translate(192,55)"/>
<path d="M0 0 C3.50975593 0.34409372 5.33614101 1.29977601 8.1875 3.3125 C7.1975 3.8075 7.1975 3.8075 6.1875 4.3125 C6.1875 4.9725 6.1875 5.6325 6.1875 6.3125 C4.8675 6.3125 3.5475 6.3125 2.1875 6.3125 C2.1875 6.9725 2.1875 7.6325 2.1875 8.3125 C0.6096875 7.8484375 0.6096875 7.8484375 -1 7.375 C-6.47212778 5.44140861 -6.47212778 5.44140861 -11.8125 6.3125 C-11.8125 4.9925 -11.8125 3.6725 -11.8125 2.3125 C-10.141875 2.374375 -10.141875 2.374375 -8.4375 2.4375 C-4.18138009 2.29073724 -3.96246631 0.44027403 0 0 Z " fill="#C1C1C0" transform="translate(305.8125,25.6875)"/>
<path d="M0 0 C3.3 0 6.6 0 10 0 C10 0.99 10 1.98 10 3 C11.98 2.67 13.96 2.34 16 2 C15 4 15 4 13.109375 4.8515625 C4.61143299 7.6373117 4.61143299 7.6373117 1 7 C-0.8125 5.5 -0.8125 5.5 -2 4 C-1.34 2.68 -0.68 1.36 0 0 Z " fill="#BEBCBC" transform="translate(234,26)"/>
<path d="M0 0 C0.66 0 1.32 0 2 0 C2 0.66 2 1.32 2 2 C2.94875 2.103125 3.8975 2.20625 4.875 2.3125 C8 3 8 3 10 6 C7.08088957 7.68659714 4.27290082 9.14851361 1 10 C-2.5625 8.25 -2.5625 8.25 -5 6 C-4.67 5.01 -4.34 4.02 -4 3 C-1.9375 2.3125 -1.9375 2.3125 0 2 C0 1.34 0 0.68 0 0 Z " fill="#D0D2D2" transform="translate(364,71)"/>
<path d="M0 0 C1.48253267 0.61697319 2.96095174 1.24383896 4.4375 1.875 C5.67306641 2.39707031 5.67306641 2.39707031 6.93359375 2.9296875 C9 4 9 4 10 6 C9.360625 6.12375 8.72125 6.2475 8.0625 6.375 C7.381875 6.58125 6.70125 6.7875 6 7 C5.67 7.66 5.34 8.32 5 9 C-1.75 8.25 -1.75 8.25 -4 6 C-1.125 1.125 -1.125 1.125 0 0 Z " fill="#C15553" transform="translate(254,93)"/>
<path d="M0 0 C0 0.66 0 1.32 0 2 C2.64 2.33 5.28 2.66 8 3 C4.71275729 5.19149514 1.73892586 6.71071522 -2 8 C-5.92328514 7.12815886 -6.73567797 6.39648304 -9 3 C-3.375 0 -3.375 0 0 0 Z " fill="#CFCFD0" transform="translate(342,85)"/>
<path d="M0 0 C-8.56402155 5.25696769 -17.60273054 9.46562874 -27 13 C-25.50941051 8.32948627 -25.50941051 8.32948627 -23.23046875 6.85546875 C-19.38110748 5.59688218 -16.11204661 4.61449563 -12 5 C-12 4.01 -12 3.02 -12 2 C-10.68 2.33 -9.36 2.66 -8 3 C-8 2.34 -8 1.68 -8 1 C-2.25 -1.125 -2.25 -1.125 0 0 Z " fill="#630505" transform="translate(196,175)"/>
<path d="M0 0 C0.99 0 1.98 0 3 0 C2.84152588 0.51208008 2.68305176 1.02416016 2.51977539 1.55175781 C1.8357732 4.77353987 1.77804763 7.8794827 1.68359375 11.171875 C1.66281265 11.8542926 1.64203156 12.53671021 1.62062073 13.23980713 C1.55547948 15.40977356 1.49640596 17.57985624 1.4375 19.75 C1.39428103 21.22527221 1.35066568 22.70053287 1.30664062 24.17578125 C1.19983482 27.78373166 1.09846847 31.39181133 1 35 C1.66 35.33 2.32 35.66 3 36 C4.03145371 37.30915279 5.03542166 38.64082143 6 40 C4.02 40.66 2.04 41.32 0 42 C0 28.14 0 14.28 0 0 Z " fill="#776565" transform="translate(340,101)"/>
<path d="M0 0 C1.65 0.99 3.3 1.98 5 3 C4.67 3.66 4.34 4.32 4 5 C3.88177029 6.54142175 3.82300189 8.08761097 3.79467773 9.63330078 C3.77473251 10.59414581 3.75478729 11.55499084 3.73423767 12.54495239 C3.71752518 13.58457123 3.70081268 14.62419006 3.68359375 15.6953125 C3.66281265 16.75789276 3.64203156 17.82047302 3.62062073 18.91525269 C3.55509739 22.31843438 3.49622727 25.72169489 3.4375 29.125 C3.39431743 31.42839366 3.35070323 33.73177926 3.30664062 36.03515625 C3.19941318 41.69002021 3.09765198 47.34496303 3 53 C2.67 53 2.34 53 2 53 C2 50.69 2 48.38 2 46 C1.34 46 0.68 46 0 46 C0 45.34 0 44.68 0 44 C0.66 44 1.32 44 2 44 C2 30.14 2 16.28 2 2 C1.34 2 0.68 2 0 2 C0 1.34 0 0.68 0 0 Z " fill="#7D6135" transform="translate(6,180)"/>
<path d="M0 0 C2.0625 0.4375 2.0625 0.4375 4 1 C-1.74026844 4.66400113 -7.36706649 7.72912122 -13.74609375 10.125 C-16.21853851 11.04131523 -16.21853851 11.04131523 -19.3125 12.6875 C-21.91771408 13.95981385 -24.14436983 14.58005439 -27 15 C-22.18919712 11.01390619 -18.09541114 8.24232256 -12.0625 6.5625 C-7.34207668 5.2309179 -3.52508941 3.52508941 0 0 Z " fill="#620909" transform="translate(243,148)"/>
<path d="M0 0 C0.66 0.33 1.32 0.66 2 1 C-5.94813733 7.27173119 -5.94813733 7.27173119 -11 9 C-12.051875 9.556875 -13.10375 10.11375 -14.1875 10.6875 C-15.115625 11.120625 -16.04375 11.55375 -17 12 C-17.66 11.67 -18.32 11.34 -19 11 C-15.375 8 -15.375 8 -12 8 C-12 7.34 -12 6.68 -12 6 C-11.34 6 -10.68 6 -10 6 C-9.67 5.01 -9.34 4.02 -9 3 C-7.35 3 -5.7 3 -4 3 C-3.67 2.34 -3.34 1.68 -3 1 C-2.01 0.67 -1.02 0.34 0 0 Z " fill="#670909" transform="translate(276,132)"/>
<path d="M0 0 C0.93423645 3.01031744 1.04449911 3.86650268 0 7 C-3 8 -3 8 -5.1875 7.0625 C-5.785625 6.711875 -6.38375 6.36125 -7 6 C-7 5.34 -7 4.68 -7 4 C-7.66 3.67 -8.32 3.34 -9 3 C-5.55930376 0.70620251 -4.27709699 0 0 0 Z " fill="#B0B0B0" transform="translate(376,77)"/>
<path d="M0 0 C0.66 0.33 1.32 0.66 2 1 C0.35 1.66 -1.3 2.32 -3 3 C-3 3.66 -3 4.32 -3 5 C-6.41831915 7.5393228 -8.75776898 8.3636198 -13 8 C-13 8.66 -13 9.32 -13 10 C-15.31 10.66 -17.62 11.32 -20 12 C-19.67 11.34 -19.34 10.68 -19 10 C-16.4375 9.375 -16.4375 9.375 -14 9 C-13.67 8.01 -13.34 7.02 -13 6 C-11.01463373 5.29094062 -9.01089078 4.63305821 -7 4 C-5.73522877 3.29676621 -4.48493709 2.56689672 -3.25 1.8125 C-2.1775 1.214375 -1.105 0.61625 0 0 Z " fill="#610505" transform="translate(336,102)"/>
<path d="M0 0 C0.66 0.33 1.32 0.66 2 1 C2 1.66 2 2.32 2 3 C-0.09836004 4.03271642 -2.20390891 5.05083717 -4.3125 6.0625 C-5.48425781 6.63097656 -6.65601563 7.19945312 -7.86328125 7.78515625 C-11 9 -11 9 -14 8 C-12.68 7.67 -11.36 7.34 -10 7 C-10 6.01 -10 5.02 -10 4 C-8.906875 3.71125 -7.81375 3.4225 -6.6875 3.125 C-2.95986155 2.18106796 -2.95986155 2.18106796 0 0 Z " fill="#3D0802" transform="translate(266,177)"/>
<path d="M0 0 C-5.56417423 4.09585047 -10.17138008 6.75843274 -17 8 C-14.76027739 4.46359588 -12.89201944 3.39713518 -9 2 C-8.34 1.34 -7.68 0.68 -7 0 C-3.99340864 -1.066855 -3.14820941 -1.04940314 0 0 Z " fill="#AD2C30" transform="translate(247,132)"/>
<path d="M0 0 C0.99 0 1.98 0 3 0 C3 0.99 3 1.98 3 3 C3.93972656 3.14695313 3.93972656 3.14695313 4.8984375 3.296875 C5.71570313 3.44640625 6.53296875 3.5959375 7.375 3.75 C8.59316406 3.95882812 8.59316406 3.95882812 9.8359375 4.171875 C12 5 12 5 13.2890625 7.078125 C13.64097656 8.02945313 13.64097656 8.02945313 14 9 C8.52067211 7.45454854 3.88570819 4.84456788 -1 2 C-0.67 1.34 -0.34 0.68 0 0 Z " fill="#D6C4BB" transform="translate(214,36)"/>
<path d="M0 0 C3.8063457 0.67170806 7.35206816 1.72746564 11 3 C11 3.66 11 4.32 11 5 C11.639375 5.12375 12.27875 5.2475 12.9375 5.375 C13.618125 5.58125 14.29875 5.7875 15 6 C15.33 6.66 15.66 7.32 16 8 C11.85701333 7.40165275 8.81805623 5.99335715 5.1875 3.9375 C4.21167969 3.38964844 3.23585938 2.84179688 2.23046875 2.27734375 C1.49441406 1.85582031 0.75835937 1.43429688 0 1 C0 0.67 0 0.34 0 0 Z " fill="#541105" transform="translate(65,209)"/>
<path d="M0 0 C0.556875 0.226875 1.11375 0.45375 1.6875 0.6875 C0.6975 1.1825 0.6975 1.1825 -0.3125 1.6875 C-0.3125 3.0075 -0.3125 4.3275 -0.3125 5.6875 C-3.27425123 5.07472388 -4.69308783 4.43377478 -7.3125 2.6875 C-2.88173077 -0.38942308 -2.88173077 -0.38942308 0 0 Z " fill="#AA302F" transform="translate(100.3125,162.3125)"/>
<path d="M0 0 C-1.39077301 0.82113177 -2.78788893 1.63152495 -4.1875 2.4375 C-4.96480469 2.88996094 -5.74210938 3.34242188 -6.54296875 3.80859375 C-9.04931977 5.02391499 -11.25790365 5.57626575 -14 6 C-4.91506733 -1.52751564 -4.91506733 -1.52751564 0 0 Z " fill="#6E060C" transform="translate(230,157)"/>
<path d="M0 0 C1.32 0.66 2.64 1.32 4 2 C-2.625 6 -2.625 6 -6 6 C-6 5.34 -6 4.68 -6 4 C-4.03852126 2.61061923 -2.03833424 1.2739589 0 0 Z " fill="#390901" transform="translate(323,148)"/>
<path d="M0 0 C4.12751449 0.60698743 7.3321148 2.03810791 11 4 C7.16714736 5.47417409 4.74123068 4.38262873 1 3 C0.34 3 -0.32 3 -1 3 C-0.67 2.01 -0.34 1.02 0 0 Z " fill="#671216" transform="translate(329,97)"/>
<path d="M0 0 C4.56454251 0.54339792 7.9728176 1.79463821 12 4 C11.67 4.99 11.34 5.98 11 7 C9.39125 6.071875 9.39125 6.071875 7.75 5.125 C5.20219016 3.6676321 2.64740645 2.27075509 0 1 C0 0.67 0 0.34 0 0 Z " fill="#651315" transform="translate(232,49)"/>
<path d="M0 0 C0.99 0 1.98 0 3 0 C3 0.66 3 1.32 3 2 C-2.17578125 5.22265625 -2.17578125 5.22265625 -4 6 C-4.99 5.67 -5.98 5.34 -7 5 C-7 4.34 -7 3.68 -7 3 C-5.5459375 2.5359375 -5.5459375 2.5359375 -4.0625 2.0625 C-1.15934208 1.30476658 -1.15934208 1.30476658 0 0 Z " fill="#3E0601" transform="translate(153,233)"/>
<path d="M0 0 C1.65 0 3.3 0 5 0 C3.74922363 2.50155273 2.64972695 2.92212548 0.1875 4.1875 C-0.49957031 4.55230469 -1.18664062 4.91710937 -1.89453125 5.29296875 C-4.35996549 6.12087895 -5.58292094 5.85276722 -8 5 C-7.01 5 -6.02 5 -5 5 C-5 4.01 -5 3.02 -5 2 C-3.68 2 -2.36 2 -1 2 C-0.67 1.34 -0.34 0.68 0 0 Z " fill="#3B0901" transform="translate(312,154)"/>
<path d="M0 0 C-2.40436026 3.60654039 -3.94679607 3.85452932 -8 5 C-7.25 2.5625 -7.25 2.5625 -6 0 C-3.40713222 -1.13437965 -2.55267344 -1.27633672 0 0 Z " fill="#6D080C" transform="translate(177,183)"/>
<path d="M0 0 C0.66 0.99 1.32 1.98 2 3 C0.38007835 3.86375896 -1.24611861 4.71575854 -2.875 5.5625 C-4.23238281 6.27599609 -4.23238281 6.27599609 -5.6171875 7.00390625 C-6.40351563 7.33261719 -7.18984375 7.66132813 -8 8 C-8.66 7.67 -9.32 7.34 -10 7 C-4.25 3 -4.25 3 -2 3 C-2 2.34 -2 1.68 -2 1 C-1.34 0.67 -0.68 0.34 0 0 Z " fill="#6F6C5F" transform="translate(356,132)"/>
<path d="M0 0 C-5.41538462 4.06153846 -5.41538462 4.06153846 -8.375 3.75 C-8.91125 3.5025 -9.4475 3.255 -10 3 C-3.375 -1.125 -3.375 -1.125 0 0 Z " fill="#620806" transform="translate(208,169)"/>
<path d="M0 0 C-3.66291938 2.47785723 -6.6109185 3.48964169 -11 4 C-7.64918101 0.31409911 -4.96535219 -1.77334007 0 0 Z " fill="#560502" transform="translate(258,145)"/>
<path d="M0 0 C0 0.99 0 1.98 0 3 C-2.9063515 5.80255323 -3.78825048 6 -8 6 C-8 5.34 -8 4.68 -8 4 C-5.36 2.68 -2.72 1.36 0 0 Z " fill="#57331E" transform="translate(287,169)"/>
<path d="M0 0 C2 3 2 3 2 5 C1.01 5 0.02 5 -1 5 C-1 4.34 -1 3.68 -1 3 C-1.99 2.67 -2.98 2.34 -4 2 C-2.68 1.34 -1.36 0.68 0 0 Z M-6 3 C-5.34 3.33 -4.68 3.66 -4 4 C-5.32 4.33 -6.64 4.66 -8 5 C-7.34 4.34 -6.68 3.68 -6 3 Z " fill="#6A0208" transform="translate(203,33)"/>
<path d="M0 0 C-4.625 3 -4.625 3 -8 3 C-8 2.34 -8 1.68 -8 1 C-4.93251126 -0.86240388 -3.40254489 -1.2151946 0 0 Z " fill="#670708" transform="translate(168,189)"/>
<path d="M0 0 C0.66 0.66 1.32 1.32 2 2 C-0.35438733 3.42944945 -1.48032433 4.08661261 -4.25 3.625 C-4.8275 3.41875 -5.405 3.2125 -6 3 C-3.86437246 0.86437246 -2.93453261 0.36681658 0 0 Z " fill="#B03536" transform="translate(260,123)"/>
<path d="M0 0 C3.96 1.98 3.96 1.98 8 4 C8 4.66 8 5.32 8 6 C5.0280615 4.87548273 2.66559313 3.77706209 0 2 C0 1.34 0 0.68 0 0 Z " fill="#6E1619" transform="translate(319,91)"/>
</svg>
